<?xml version="1.0" encoding="UTF-8"?>
<svg version="1.1" xmlns="http://www.w3.org/2000/svg" width="96" height="96">
<path d="M0 0 C6.58799037 6.39976207 7.95649371 14.80376132 8.375 23.5625 C8.68137098 28.35896371 9.30713713 32.73664046 10.5625 37.375 C13.46769672 48.22297592 11.86135961 58.45511159 6.25 68.3125 C-0.32727579 78.33883505 -8.97227923 84.46113483 -20.75 87.375 C-32.20256955 89.3622974 -43.01879195 87.03467248 -52.75390625 80.6484375 C-61.9700962 73.88455548 -67.78131799 64.43420871 -69.75390625 53.06640625 C-70.58606721 46.07889598 -69.58842616 40.59405393 -67.75390625 33.83203125 C-67.50511719 32.89746094 -67.25632812 31.96289062 -67 31 C-66.77183594 30.20722656 -66.54367188 29.41445313 -66.30859375 28.59765625 C-65.74691976 23.86964105 -67.32327155 19.37304889 -68.40625 14.7890625 C-69.02443141 10.84408903 -68.90350564 7.87918184 -68 4 C-64.71027298 2.35513649 -61.54090309 2.33201661 -58 3 C-55.56640625 4.41015625 -55.56640625 4.41015625 -53.0625 6.125 C-49.71598781 8.3868188 -49.71598781 8.3868188 -45.85546875 8.98828125 C-44.40646667 8.60922876 -42.96859087 8.18578945 -41.54296875 7.7265625 C-34.50261098 5.71503171 -26.72940238 5.57490643 -19.5625 6.875 C-16.5084306 7.29763893 -15.46993528 7.32554176 -12.90234375 5.546875 C-11.14686513 3.77337298 -9.58778254 1.92157773 -8 0 C-4.99733781 -1.5013311 -3.18669322 -0.8922741 0 0 Z " fill="#FEDF72" transform="translate(77,4)"/>
<path d="M0 0 C-0.35602819 9.43474691 -4.48192578 17.03338087 -11.375 23.4375 C-19.50593209 30.10868421 -28.36866608 33.55612318 -38.96875 33.30859375 C-49.83367757 32.20249932 -58.41374337 28.13736715 -65.7421875 20.0859375 C-69.81588375 14.99888397 -74 8.67460537 -74 2 C-66.79985122 1.45919354 -62.61118761 4.86859205 -57 9 C-55.19468046 10.59174379 -53.62430074 12.21850887 -52 14 C-51.34 14.33 -50.68 14.66 -50 15 C-50 16.32 -50 17.64 -50 19 C-52.71851177 20.35925589 -54.99117026 20.06268395 -58 20 C-58.66 20 -59.32 20 -60 20 C-55.52867248 22.53499553 -51.59599833 22.36736771 -46.5625 22.375 C-45.2930957 22.41173828 -45.2930957 22.41173828 -43.99804688 22.44921875 C-39.79472428 22.46896811 -37.56174142 22.34427028 -33.90234375 20.1015625 C-31.77630209 18.22532443 -31.77630209 18.22532443 -32 16 C-32.45375 16.66 -32.9075 17.32 -33.375 18 C-36.87136636 20.66389818 -39.37559357 20.4400367 -43.66015625 20.43359375 C-46.4103982 19.92394958 -47.34397658 19.22070026 -49 17 C-49 16.34 -49 15.68 -49 15 C-48.030625 14.360625 -47.06125 13.72125 -46.0625 13.0625 C-42.75744775 11.28938993 -42.75744775 11.28938993 -42 8 C-40 7 -38 6 -36 5 C-34.50329202 3.83468653 -33.02522926 2.64518928 -31.5625 1.4375 C-21.31195976 -6.67394586 -11.28618135 -4.7254292 0 0 Z " fill="#FDF7E7" transform="translate(85,56)"/>
<path d="M0 0 C6.58799037 6.39976207 7.95649371 14.80376132 8.375 23.5625 C8.68137098 28.35896371 9.30713713 32.73664046 10.5625 37.375 C13.46769672 48.22297592 11.86135961 58.45511159 6.25 68.3125 C-0.32727579 78.33883505 -8.97227923 84.46113483 -20.75 87.375 C-32.20256955 89.3622974 -43.01879195 87.03467248 -52.75390625 80.6484375 C-61.9700962 73.88455548 -67.78131799 64.43420871 -69.75390625 53.06640625 C-70.58606721 46.07889598 -69.58842616 40.59405393 -67.75390625 33.83203125 C-67.50511719 32.89746094 -67.25632812 31.96289062 -67 31 C-66.77183594 30.20722656 -66.54367188 29.41445313 -66.30859375 28.59765625 C-65.74691976 23.86964105 -67.32327155 19.37304889 -68.40625 14.7890625 C-69.02443141 10.84408903 -68.90350564 7.87918184 -68 4 C-64.71027298 2.35513649 -61.54090309 2.33201661 -58 3 C-55.56640625 4.41015625 -55.56640625 4.41015625 -53.0625 6.125 C-49.71598781 8.3868188 -49.71598781 8.3868188 -45.85546875 8.98828125 C-44.40646667 8.60922876 -42.96859087 8.18578945 -41.54296875 7.7265625 C-34.50261098 5.71503171 -26.72940238 5.57490643 -19.5625 6.875 C-16.5084306 7.29763893 -15.46993528 7.32554176 -12.90234375 5.546875 C-11.14686513 3.77337298 -9.58778254 1.92157773 -8 0 C-4.99733781 -1.5013311 -3.18669322 -0.8922741 0 0 Z M-8.23828125 3.87109375 C-8.92277344 4.71800781 -9.60726562 5.56492187 -10.3125 6.4375 C-11.00988281 7.28183594 -11.70726562 8.12617188 -12.42578125 8.99609375 C-12.94527344 9.65738281 -13.46476562 10.31867187 -14 11 C-15.2375 10.67 -16.475 10.34 -17.75 10 C-26.06470462 8.18279254 -34.03921294 8.04522157 -41.96484375 11.34375 C-44.5072673 12.1635718 -46.33810687 12.29305245 -49 12 C-51.46484375 10.6875 -51.46484375 10.6875 -53.9375 9 C-57.80251863 6.53886706 -60.29627534 5.25730663 -65 6 C-66.56454159 10.02014661 -65.46223974 13.69925681 -64.5625 17.75 C-64.41490234 18.44738281 -64.26730469 19.14476563 -64.11523438 19.86328125 C-63.75131967 21.5772021 -63.37670932 23.28884581 -63 25 C-60.03 22.525 -60.03 22.525 -57 20 C-57.47050781 20.68964844 -57.94101562 21.37929688 -58.42578125 22.08984375 C-65.5038988 32.77296527 -68.83451038 41.68087914 -66.53125 54.63671875 C-63.65515188 65.54192412 -57.59050404 74.28916189 -47.9921875 80.24609375 C-39.36572659 84.86378753 -29.78475256 86.64705717 -20.16796875 84.3125 C-9.09000372 80.59402223 -0.19876585 74.41589586 5.25 63.9375 C5.84715232 62.6312293 6.43191043 61.31916954 7 60 C7.4125 59.0925 7.825 58.185 8.25 57.25 C10.62397839 46.9627603 9.05204389 35.91871375 3.69140625 26.765625 C2.51723732 25.13502839 1.26332763 23.56253681 0 22 C-0.37125 21.236875 -0.7425 20.47375 -1.125 19.6875 C-2.01301388 17.64226079 -2.01301388 17.64226079 -5 16 C-4.34 12.7 -3.68 9.4 -3 6 C-0.35499127 11.54598606 1.14604933 15.90035232 2 22 C3.41591827 23.92283085 3.41591827 23.92283085 5 25 C5.42389653 17.2285637 4.05408927 9.22041756 -1 3 C-4.38958904 1.68845047 -5.38574118 1.48650965 -8.23828125 3.87109375 Z " fill="#DE8604" transform="translate(77,4)"/>
<path d="M0 0 C4.28154349 1.39973537 5.65388681 2.42675004 8 6.3125 C9.15367499 10.56667652 8.87516244 12.0792058 7 16 C6.40832031 17.23943359 6.40832031 17.23943359 5.8046875 18.50390625 C2.38015805 23.24043075 -3.56427197 24.43388388 -9 26 C-11.53121605 26.32819657 -13.45619963 26.29579074 -16 26 C-15.505 25.195625 -15.01 24.39125 -14.5 23.5625 C-12.91580347 21.35103815 -12.91580347 21.35103815 -13 20 C-13.99 20.66 -14.98 21.32 -16 22 C-18.375 22.30078125 -18.375 22.30078125 -21 22.3125 C-22.299375 22.33763672 -22.299375 22.33763672 -23.625 22.36328125 C-26.43490048 21.93347739 -27.32780615 21.26076207 -29 19 C-29 18.34 -29 17.68 -29 17 C-28.030625 16.360625 -27.06125 15.72125 -26.0625 15.0625 C-22.75744775 13.28938993 -22.75744775 13.28938993 -22 10 C-20 9 -18 8 -16 7 C-14.50644848 5.78835294 -13.02818787 4.55770833 -11.5625 3.3125 C-7.57445932 0.14749456 -5.19941377 -0.98102147 0 0 Z " fill="#FEFAED" transform="translate(65,54)"/>
<path d="M0 0 C3.76386046 1.11414145 7.38068971 2.48462522 11 4 C10.64397181 13.43474691 6.51807422 21.03338087 -0.375 27.4375 C-10.41352467 35.67380632 -20.90213258 37.97486616 -33.7109375 36.73828125 C-36 36 -36 36 -37.3125 33.9375 C-37.539375 33.298125 -37.76625 32.65875 -38 32 C-36.67548828 32.08701172 -36.67548828 32.08701172 -35.32421875 32.17578125 C-27.63745141 32.46475747 -22.31007355 31.81363846 -15.48828125 28.24609375 C-12.0630827 26.53080593 -8.73792407 25.77579556 -5 25 C-4.896875 24.29875 -4.79375 23.5975 -4.6875 22.875 C-4 20 -4 20 -2.3125 17.125 C-0.59139419 13.02712902 -1.43709156 11.06356193 -3 7 C-4.305239 4.38952199 -5.35826574 4.31933577 -8.0625 3.375 C-8.79597656 3.11460938 -9.52945313 2.85421875 -10.28515625 2.5859375 C-10.85105469 2.39257812 -11.41695312 2.19921875 -12 2 C-7.89616618 -0.73588922 -4.82220515 -0.61621047 0 0 Z " fill="#FEF5D6" transform="translate(74,52)"/>
<path d="M0 0 C4.38424573 1.86080823 4.38424573 1.86080823 5.88671875 3.36328125 C6.19921875 6.73828125 6.19921875 6.73828125 5.88671875 10.36328125 C3.21316215 13.12902945 0.4369842 14.2502958 -3.41796875 14.53125 C-9.09746481 14.57440726 -13.21945666 14.38895846 -17.98828125 11.05078125 C-19.11328125 9.36328125 -19.11328125 9.36328125 -19.11328125 6.92578125 C-16.03489199 -0.96259123 -7.31351563 -2.20351765 0 0 Z " fill="#8B3706" transform="translate(63.11328125,39.63671875)"/>
<path d="M0 0 C6.11913388 6.11913388 7.17766428 14.36647979 7.1875 22.6875 C7.14023518 24.45880545 7.08340182 26.23002794 7 28 C6.67 27.34 6.34 26.68 6 26 C0.19815537 23.90210116 -5.87941532 22.68006496 -12 22 C-11.67 21.34 -11.34 20.68 -11 20 C-10.9310528 18.62657169 -10.91532292 17.24997898 -10.9375 15.875 C-10.958125 14.59625 -10.97875 13.3175 -11 12 C-10.34 12 -9.68 12 -9 12 C-8.7525 11.4225 -8.505 10.845 -8.25 10.25 C-6.81700012 7.67060021 -5.21575324 5.93878408 -3 4 C-2.34 4 -1.68 4 -1 4 C-0.67 2.68 -0.34 1.36 0 0 Z " fill="#FCD85A" transform="translate(79,30)"/>
<path d="M0 0 C3.0625 1.125 3.0625 1.125 5 3 C6.1875 5.875 6.1875 5.875 6 9 C3.40375661 12.14282095 1.78061724 13.66944759 -2.23046875 14.4140625 C-5.86489321 14.54799439 -8.58251973 14.1565551 -12 12.875 C-14 11 -14 11 -15.125 8.125 C-15 5 -15 5 -13.1875 2.125 C-8.75025341 -0.8331644 -5.18733099 -0.76660064 0 0 Z " fill="#924314" transform="translate(27,41)"/>
<path d="M0 0 C2.5 1 2.5 1 4 2 C3.65930765 5.15140423 3.41923159 6.60781561 1.0625 8.8125 C-1 10 -1 10 -3 10 C-2.67 11.32 -2.34 12.64 -2 14 C-0.06318839 14.08107583 1.8745934 14.13922475 3.8125 14.1875 C4.89144531 14.22230469 5.97039063 14.25710937 7.08203125 14.29296875 C9.98773508 14.26498363 9.98773508 14.26498363 11.76171875 12.61328125 C12.17035156 12.08089844 12.57898438 11.54851562 13 11 C13.66 10.34 14.32 9.68 15 9 C14.73084662 12.22984057 14.2527734 13.7240641 12.0390625 16.140625 C7.82519656 18.71877434 4.40743936 18.58951389 -0.4375 18.5 C-1.68756836 18.52320313 -1.68756836 18.52320313 -2.96289062 18.546875 C-8.58848633 18.51129811 -11.63792735 17.57477173 -16 14 C-15.01 13.67 -14.02 13.34 -13 13 C-12.67 13.33 -12.34 13.66 -12 14 C-9.32941149 14.14115161 -6.67567762 14.04247107 -4 14 C-4 12.68 -4 11.36 -4 10 C-4.78375 9.71125 -5.5675 9.4225 -6.375 9.125 C-9 8 -9 8 -11 6 C-10.75 3.4375 -10.75 3.4375 -10 1 C-6.83013832 -0.58493084 -3.45967739 -0.2940042 0 0 Z " fill="#893403" transform="translate(39,61)"/>
<path d="M0 0 C11.70615034 0.59453303 11.70615034 0.59453303 16 4 C11 9 11 9 8.6875 11.0625 C6.56214617 13.07449596 6.56214617 13.07449596 7 17 C4.69 17.33 2.38 17.66 0 18 C-0.185625 17.13375 -0.185625 17.13375 -0.375 16.25 C-0.88990983 13.98810719 -0.88990983 13.98810719 -2.125 12.1875 C-3.41487498 8.96281256 -2.64266804 6.34187382 -2 3 C-1.34 3 -0.68 3 0 3 C0 2.01 0 1.02 0 0 Z " fill="#FEE382" transform="translate(53,14)"/>
<path d="M0 0 C7.461896 -1.17819411 13.1174314 4.0782876 19 8 C17.7934375 8.2784375 17.7934375 8.2784375 16.5625 8.5625 C10.9254691 10.83709142 6.2847441 14.7152559 2 19 C1.46839543 16.58525383 0.94945234 14.16891893 0.4375 11.75 C0.21030273 10.72712891 0.21030273 10.72712891 -0.02148438 9.68359375 C-0.75233495 6.18230962 -1.32203546 3.39701827 0 0 Z " fill="#FED74C" transform="translate(12,10)"/>
<path d="M0 0 C4.55718085 0.4587766 4.55718085 0.4587766 6.546875 2.890625 C6.94390625 3.66921875 7.3409375 4.4478125 7.75 5.25 C8.15734375 6.01828125 8.5646875 6.7865625 8.984375 7.578125 C11.14624926 12.73336362 11.09315814 17.50366981 11 23 C8.13184838 20.60727569 7.5387405 18.84083402 7 15.1875 C6.27789978 11.007886 5.14521734 7.70537541 3 4 C2.01 7.3 1.02 10.6 0 14 C-0.33 13.34 -0.66 12.68 -1 12 C-2.97888961 11.27306096 -4.97954558 10.60183749 -7 10 C-5.33248852 6.05860922 -2.77289351 3.2107188 0 0 Z " fill="#FDD650" transform="translate(71,6)"/>
<path d="M0 0 C1.44307685 2.50133321 2.02559005 4.21325045 2.375 7.125 C2.69248548 10.0320849 2.69248548 10.0320849 4.625 11.3125 C7.72296217 12.20927852 10.80006265 12.63077646 14 13 C14.2475 13.78375 14.495 14.5675 14.75 15.375 C16.15389099 18.32317108 17.00675737 18.9024777 20 20 C19.01 20.99 18.02 21.98 17 23 C13.98844203 21.93709719 11.69435974 20.78540152 9.0625 18.9375 C5.87612028 16.92162711 3.6743581 16.51270113 0 16 C-1.36538938 13.26922124 -1.13231826 11.04439633 -1.125 8 C-1.12757812 6.9275 -1.13015625 5.855 -1.1328125 4.75 C-1 2 -1 2 0 0 Z " fill="#FEDB57" transform="translate(11,42)"/>
<path d="M0 0 C0 0.66 0 1.32 0 2 C3.3 1.67 6.6 1.34 10 1 C1.05305229 7.71021079 -7.82228806 8.81777119 -18.6953125 7.73046875 C-21 7 -21 7 -22.3125 4.9375 C-22.539375 4.298125 -22.76625 3.65875 -23 3 C-21.60587891 3.05220703 -21.60587891 3.05220703 -20.18359375 3.10546875 C-12.93142438 3.26427538 -6.42059669 0 0 0 Z " fill="#F3CF88" transform="translate(59,81)"/>
<path d="M0 0 C2.13661996 1.6914908 2.93518661 2.54784947 3.328125 5.2890625 C2.89679396 8.85267843 1.5271651 10.44077348 -0.75 13.1875 C-1.44609375 14.04730469 -2.1421875 14.90710938 -2.859375 15.79296875 C-4.86019666 17.8558597 -6.36259927 18.93672358 -9 20 C-9.66 17.36 -10.32 14.72 -11 12 C-10.34 12 -9.68 12 -9 12 C-8.7525 11.4225 -8.505 10.845 -8.25 10.25 C-6.81700012 7.67060021 -5.21575324 5.93878408 -3 4 C-2.34 4 -1.68 4 -1 4 C-0.67 2.68 -0.34 1.36 0 0 Z " fill="#FEDC63" transform="translate(79,30)"/>
<path d="M0 0 C7.54290017 -0.4946164 13.058915 1.09382609 20 4 C19.69558662 12.06695454 16.68545127 19.15975978 11.046875 25.03515625 C9.42466443 26.42986168 7.71969014 27.7274293 6 29 C6.33 27.35 6.66 25.7 7 24 C7.99 24 8.98 24 10 24 C10.33 22.35 10.66 20.7 11 19 C11.99 18.67 12.98 18.34 14 18 C15.31517278 14.05448165 15.9115792 9.8231584 14 6 C13.01 6 12.02 6 11 6 C10.4225 5.360625 9.845 4.72125 9.25 4.0625 C6.29033502 1.34947377 3.92492059 1.30191697 0 1 C0 0.67 0 0.34 0 0 Z " fill="#FDEEC0" transform="translate(65,52)"/>
<path d="M0 0 C1.9375 1.125 1.9375 1.125 3 3 C2.6875 6.1875 2.6875 6.1875 2 9 C-1 9 -1 9 -2.875 8.015625 C-5.40683981 6.8055545 -7.20562641 6.73296114 -10 6.75 C-10.845625 6.74484375 -11.69125 6.7396875 -12.5625 6.734375 C-15.13478811 7.01468845 -16.7803108 7.7051813 -19 9 C-18 6 -18 6 -15.48828125 4.39453125 C-14.44027344 3.87246094 -13.39226563 3.35039063 -12.3125 2.8125 C-10.75982422 2.01779297 -10.75982422 2.01779297 -9.17578125 1.20703125 C-5.83447275 -0.06291257 -3.53991852 -0.31950554 0 0 Z " fill="#FCF7E6" transform="translate(32,35)"/>
<path d="M0 0 C0.33 1.32 0.66 2.64 1 4 C-2.39951567 7.48229608 -4.59724289 9.31028577 -9.53125 9.62890625 C-11.1876432 9.63285631 -12.84428724 9.61013715 -14.5 9.5625 C-15.32886719 9.57345703 -16.15773438 9.58441406 -17.01171875 9.59570312 C-22.60281017 9.52903669 -25.66167704 8.54249424 -30 5 C-29.01 4.67 -28.02 4.34 -27 4 C-26.67 4.33 -26.34 4.66 -26 5 C-23.32941149 5.14115161 -20.67567762 5.04247107 -18 5 C-17.67 4.01 -17.34 3.02 -17 2 C-16.67 2.99 -16.34 3.98 -16 5 C-14.06318839 5.08107583 -12.1254066 5.13922475 -10.1875 5.1875 C-9.10855469 5.22230469 -8.02960937 5.25710937 -6.91796875 5.29296875 C-4.00911205 5.25763826 -4.00911205 5.25763826 -2.17578125 3.61328125 C-0.92929194 1.99641076 -0.92929194 1.99641076 0 0 Z " fill="#903E10" transform="translate(53,70)"/>
<path d="M0 0 C3.40573635 0.70929385 6.24322419 1.96535106 9.36328125 3.4921875 C9.36328125 3.8221875 9.36328125 4.1521875 9.36328125 4.4921875 C8.27660156 4.53085937 8.27660156 4.53085937 7.16796875 4.5703125 C0.85255706 4.94081665 -2.61457094 5.72557664 -7.63671875 9.4921875 C-8.62671875 9.1621875 -9.61671875 8.8321875 -10.63671875 8.4921875 C-10.32421875 5.1171875 -10.32421875 5.1171875 -9.63671875 1.4921875 C-5.87314122 -1.01686418 -4.30234981 -0.5774021 0 0 Z " fill="#FCF6E4" transform="translate(53.63671875,34.5078125)"/>
<path d="M0 0 C-0.99 1.485 -0.99 1.485 -2 3 C-2.02749478 5.06910593 -2.02749478 5.06910593 -1.625 7.1875 C-1.41875 8.445625 -1.2125 9.70375 -1 11 C-7.4 11.36923077 -7.4 11.36923077 -10.4375 9.5 C-10.953125 9.005 -11.46875 8.51 -12 8 C-11.68306247 5.06832781 -11.36774166 3.41017339 -9.375 1.1875 C-6.1686245 -0.41568775 -3.53249148 -0.20379759 0 0 Z " fill="#FAF7F5" transform="translate(58,41)"/>
<path d="M0 0 C1.32 0 2.64 0 4 0 C4 0.66 4 1.32 4 2 C13.57 1.67 23.14 1.34 33 1 C27.96230777 4.77826917 25.43092547 5.12307847 19.3125 5.0625 C17.54326172 5.04896484 17.54326172 5.04896484 15.73828125 5.03515625 C14.83464844 5.02355469 13.93101563 5.01195313 13 5 C13.66 5.66 14.32 6.32 15 7 C9.14727744 6.54979057 4.91779881 3.96160773 0 1 C0 0.67 0 0.34 0 0 Z " fill="#FEF3D4" transform="translate(24,80)"/>
<path d="M0 0 C1.22589844 0.01353516 1.22589844 0.01353516 2.4765625 0.02734375 C3.41628906 0.04474609 3.41628906 0.04474609 4.375 0.0625 C4.375 0.7225 4.375 1.3825 4.375 2.0625 C5.365 2.3925 6.355 2.7225 7.375 3.0625 C7.375 3.7225 7.375 4.3825 7.375 5.0625 C6.055 5.0625 4.735 5.0625 3.375 5.0625 C3.375 4.0725 3.375 3.0825 3.375 2.0625 C-3.76101646 2.34532126 -3.76101646 2.34532126 -9.625 6.0625 C-9.28055119 8.53516765 -9.28055119 8.53516765 -8.625 11.0625 C-5.97142965 12.38928517 -3.4276609 12.65782007 -0.5 13.125 C0.59570312 13.30160156 1.69140625 13.47820313 2.8203125 13.66015625 C3.66335937 13.79292969 4.50640625 13.92570312 5.375 14.0625 C5.375 14.3925 5.375 14.7225 5.375 15.0625 C-6.1903897 15.46672721 -6.1903897 15.46672721 -11.5 11.75 C-12.625 10.0625 -12.625 10.0625 -12.625 7.625 C-10.42057322 1.97615637 -5.68045638 -0.08114938 0 0 Z " fill="#9E5423" transform="translate(56.625,38.9375)"/>
<path d="M0 0 C1.98 0 3.96 0 6 0 C4.68 0.33 3.36 0.66 2 1 C2.42683632 2.27445454 2.86697202 3.54445882 3.3125 4.8125 C3.55613281 5.52019531 3.79976562 6.22789063 4.05078125 6.95703125 C5.06918729 9.14890927 6.28965424 10.32798132 8 12 C8 12.66 8 13.32 8 14 C6.04072937 15.7143618 4.04119788 17.38405168 2 19 C1.46839543 16.58525383 0.94945234 14.16891893 0.4375 11.75 C0.21030273 10.72712891 0.21030273 10.72712891 -0.02148438 9.68359375 C-0.75233495 6.18230962 -1.32203546 3.39701827 0 0 Z " fill="#FDD33B" transform="translate(12,10)"/>
<path d="M0 0 C-0.33 0.33 -0.66 0.66 -1 1 C-1.07179964 2.51928038 -1.08392007 4.04167482 -1.0625 5.5625 C-1.05347656 6.38878906 -1.04445313 7.21507812 -1.03515625 8.06640625 C-1.02355469 8.70449219 -1.01195312 9.34257813 -1 10 C-5.44936709 10.36075949 -5.44936709 10.36075949 -7.8125 8.8125 C-9.45691281 6.30260677 -9.5875348 4.93767401 -9 2 C-5.85636787 -0.61969344 -3.87356388 -1.57811862 0 0 Z " fill="#F5EFEB" transform="translate(23,43)"/>
<path d="M0 0 C4.22364133 3.62026399 6.35077085 8.54647513 7 14 C7.06994592 16.67293343 7.04533871 19.32501584 7 22 C4.15568791 19.61943445 3.54103189 17.87942227 3 14.25 C2.43057573 10.9210581 1.73546779 8.06485371 0.3125 5 C-0.120625 4.01 -0.55375 3.02 -1 2 C-0.67 1.34 -0.34 0.68 0 0 Z " fill="#FCCF39" transform="translate(75,7)"/>
<path d="M0 0 C1.4346589 2.4867421 2.0488814 4.3116189 2.5 7.1875 C2.665 8.115625 2.83 9.04375 3 10 C3.66 10.33 4.32 10.66 5 11 C5 12.65 5 14.3 5 16 C3.35 16 1.7 16 0 16 C-1.36538938 13.26922124 -1.13231826 11.04439633 -1.125 8 C-1.12757812 6.9275 -1.13015625 5.855 -1.1328125 4.75 C-1 2 -1 2 0 0 Z " fill="#F9CF4A" transform="translate(11,42)"/>
<path d="M0 0 C2.5 1 2.5 1 4 2 C3.67 3.32 3.34 4.64 3 6 C3 5.34 3 4.68 3 4 C2.14535156 3.95101562 1.29070313 3.90203125 0.41015625 3.8515625 C-1.24693359 3.73941406 -1.24693359 3.73941406 -2.9375 3.625 C-4.03964844 3.55539063 -5.14179687 3.48578125 -6.27734375 3.4140625 C-7.17582031 3.27742188 -8.07429688 3.14078125 -9 3 C-9.33 2.34 -9.66 1.68 -10 1 C-6.83013832 -0.58493084 -3.45967739 -0.2940042 0 0 Z " fill="#AB5418" transform="translate(39,61)"/>
<path d="M0 0 C0.33 0 0.66 0 1 0 C1 3.96 1 7.92 1 12 C0.67 11.34 0.34 10.68 0 10 C-2.01669827 8.86649466 -2.01669827 8.86649466 -4 8 C-2.66666667 5.33333333 -1.33333333 2.66666667 0 0 Z " fill="#F9CC47" transform="translate(85,46)"/>
<path d="M0 0 C2.64 0.33 5.28 0.66 8 1 C5.19195732 3.96404505 2.81684226 6.44499019 -1 8 C-0.67 5.36 -0.34 2.72 0 0 Z " fill="#FBD861" transform="translate(50,53)"/>
<path d="M0 0 C0.53625 0.825 1.0725 1.65 1.625 2.5 C3.77045868 5.33888863 3.77045868 5.33888863 7 5.125 C7.99 5.08375 8.98 5.0425 10 5 C12.375 6.5 12.375 6.5 14 8 C4.23625255 8.57433809 4.23625255 8.57433809 0 5 C-0.33 4.01 -0.66 3.02 -1 2 C-0.67 1.34 -0.34 0.68 0 0 Z " fill="#A7622A" transform="translate(13,47)"/>
<path d="M0 0 C2.97 0 5.94 0 9 0 C9 0.66 9 1.32 9 2 C9.99 2.33 10.98 2.66 12 3 C12 3.66 12 4.32 12 5 C10.68 5 9.36 5 8 5 C8 4.01 8 3.02 8 2 C5.03 2 2.06 2 -1 2 C-0.67 1.34 -0.34 0.68 0 0 Z " fill="#B78262" transform="translate(52,39)"/>
<path d="M0 0 C0.33 1.32 0.66 2.64 1 4 C-2.61139896 7.69948187 -2.61139896 7.69948187 -5 9 C-8.875 8.3125 -8.875 8.3125 -12 7 C-12 6.67 -12 6.34 -12 6 C-11.30132812 5.90203125 -10.60265625 5.8040625 -9.8828125 5.703125 C-8.51769531 5.47882813 -8.51769531 5.47882813 -7.125 5.25 C-6.22007813 5.11078125 -5.31515625 4.9715625 -4.3828125 4.828125 C-1.83785757 4.22016157 -1.83785757 4.22016157 -0.6796875 1.921875 C-0.34324219 0.97054687 -0.34324219 0.97054687 0 0 Z " fill="#9E572C" transform="translate(53,70)"/>
<path d="M0 0 C1.98 0.66 3.96 1.32 6 2 C5.67 4.64 5.34 7.28 5 10 C3 8 3 8 2.5 5.4375 C2.335 4.633125 2.17 3.82875 2 3 C1.34 2.67 0.68 2.34 0 2 C0 1.34 0 0.68 0 0 Z " fill="#FEEDB5" transform="translate(79,54)"/>
<path d="M0 0 C0.33 0.66 0.66 1.32 1 2 C1.99 2.33 2.98 2.66 4 3 C3 6 3 6 1 7 C0.34 7.99 -0.32 8.98 -1 10 C-1.125 3.375 -1.125 3.375 0 0 Z " fill="#FDD95F" transform="translate(13,35)"/>
<path d="M0 0 C1.43088528 2.86177057 0.59991697 4.93375773 0 8 C-2.475 7.01 -2.475 7.01 -5 6 C-3.63016497 2.83884224 -3.0109362 2.0072908 0 0 Z " fill="#FFDC5D" transform="translate(69,10)"/>
<path d="M0 0 C2.64 0 5.28 0 8 0 C8 0.66 8 1.32 8 2 C8.66 2.66 9.32 3.32 10 4 C6.28111761 3.49287967 3.26545761 2.88391785 0 1 C0 0.67 0 0.34 0 0 Z " fill="#FCEDC2" transform="translate(29,83)"/>
<path d="M0 0 C0.99 0.66 1.98 1.32 3 2 C2.30132812 2.13277344 1.60265625 2.26554687 0.8828125 2.40234375 C-0.02726562 2.57894531 -0.93734375 2.75554688 -1.875 2.9375 C-2.77992187 3.11152344 -3.68484375 3.28554688 -4.6171875 3.46484375 C-6.99956317 3.89963701 -6.99956317 3.89963701 -9 5 C-8 2 -8 2 -5.625 0.25 C-3 -1 -3 -1 0 0 Z " fill="#F5E8CE" transform="translate(22,39)"/>
<path d="M0 0 C4.95 0.99 4.95 0.99 10 2 C9.67 2.66 9.34 3.32 9 4 C5.625 3.6875 5.625 3.6875 2 3 C1.34 2.01 0.68 1.02 0 0 Z " fill="#944619" transform="translate(23,74)"/>
<path d="M0 0 C3.96 0.33 7.92 0.66 12 1 C12 1.33 12 1.66 12 2 C10.95199219 2.09087891 10.95199219 2.09087891 9.8828125 2.18359375 C8.97273438 2.26738281 8.06265625 2.35117188 7.125 2.4375 C6.22007813 2.51871094 5.31515625 2.59992188 4.3828125 2.68359375 C1.98889139 2.86989285 1.98889139 2.86989285 0 4 C0 2.68 0 1.36 0 0 Z " fill="#9B410A" transform="translate(28,63)"/>
</svg>
